# xmcd CD database file generated by OrangeCD 6.1
#
# Track frame offsets:
#	150
#	15938
#	34953
#	51033
#	65091
#	78265
#	94168
#	107728
#	120557
#	134924
#	149768
#	166893
#	184592
#	205775
#	226995
#	245440
#	262565
#	275793
#	292313
#
# Disc length: 4138 seconds
#
# Revision: 0
# Processed by: cddbd v1.5.2PL0 Copyright (c) Steve Scherf et al.
# Submitted via: OrangeCD 6.1
#
DISCID=19102813
DTITLE=Brenda Holloway - My Love Is Your Love [CD2]
DYEAR=2003
DGENRE=Soul
TTITLE0=I Can Feel Him Slipping Away
TTITLE1=I'm So Happy
TTITLE2=Baby, Baby Don't You Waste Your Time
TTITLE3=I'm Gonna Change
TTITLE4=I'll Never Stop Loving You
TTITLE5=Make Me Believe In You
TTITLE6=Your Song
TTITLE7=Don't Bring Me Down
TTITLE8=World Without Sunshine
TTITLE9=I Got The Fever
TTITLE10=Home Is Where The Hatred Is
TTITLE11=For All The Right Reasons
TTITLE12=All It Takes
TTITLE13=Fighting For What's Right
TTITLE14=You Gave Me Love
TTITLE15=Hot And Cold
TTITLE16=Every Little Bit Hurts
TTITLE17=You Made Me So Very Happy
TTITLE18=On The Rebound (Duet With Jimmy Ruffin)
EXTD=
EXTT0=
EXTT1=
EXTT2=
EXTT3=
EXTT4=
EXTT5=
EXTT6=
EXTT7=
EXTT8=
EXTT9=
EXTT10=
EXTT11=
EXTT12=
EXTT13=
EXTT14=
EXTT15=
EXTT16=
EXTT17=
EXTT18=
PLAYORDER=
